<?xml version="1.0" encoding="UTF-8" standalone="no"?>
<svg
   version="1.1"
   width="200"
   height="200"
   viewBox="0 0 200 200"
   id="svg776"
   sodipodi:docname="logo-black.svg"
   inkscape:export-filename="logo-black.png"
   inkscape:export-xdpi="96"
   inkscape:export-ydpi="96"
   xmlns:inkscape="http://www.inkscape.org/namespaces/inkscape"
   xmlns:sodipodi="http://sodipodi.sourceforge.net/DTD/sodipodi-0.dtd"
   xmlns="http://www.w3.org/2000/svg"
   xmlns:svg="http://www.w3.org/2000/svg">
  <defs
     id="defs780" />
  <sodipodi:namedview
     id="namedview778"
     pagecolor="#ffffff"
     bordercolor="#000000"
     borderopacity="0.25"
     inkscape:showpageshadow="2"
     inkscape:pageopacity="0.0"
     inkscape:pagecheckerboard="0"
     inkscape:deskcolor="#ffffff"
     showgrid="false" />
  <g
     transform="matrix(0.7,0,0,0.7,12.1803,11.562209)"
     id="g774">
    <svg
       viewBox="0 0 396 97"
       data-background-color="#ffffff"
       preserveAspectRatio="xMidYMid"
       height="244"
       width="1000"
       version="1.1"
       id="svg772">
      <g
         id="tight-bounds"
         transform="translate(0.24,0.23248157)">
        <svg
           viewBox="0 0 395.52 96.535037"
           height="96.535034"
           width="395.51999"
           version="1.1"
           id="svg767">
          <g
             id="g763">
            <svg
               viewBox="0 0 559.23102 136.49218"
               height="96.535034"
               width="395.51999"
               version="1.1"
               id="svg761">
              <g
                 transform="translate(163.71102,39.421857)"
                 id="g729">
                <svg
                   viewBox="0 0 395.52 57.648466"
                   height="57.648464"
                   width="395.51999"
                   version="1.1"
                   id="svg727">
                  <g
                     id="textblocktransform">
                    <svg
                       viewBox="0 0 395.52 57.648466"
                       height="57.648464"
                       width="395.51999"
                       id="textblock"
                       version="1.1">
                      <g
                         id="g723">
                        <svg
                           viewBox="0 0 395.52 57.648466"
                           height="57.648464"
                           width="395.51999"
                           version="1.1"
                           id="svg721">
                          <g
                             id="g719">
                            <svg
                               width="395.51999"
                               viewBox="2.65 -37.15 257.58743 37.402"
                               height="57.648464"
                               data-palette-color="#454545"
                               version="1.1"
                               id="svg717">
                              <g
                                 id="g712">
                                <g
                                   id="g710">
                                <svg
                                   width="17.264952"
                                   viewBox="1.78 -36.36 74.21 36.36"
                                   height="8.4589996"
                                   data-palette-color="#454545"
                                   id="scriptelement"
                                   x="242.97247"
                                   y="-37.150002"
                                   version="1.1" />
                                </g>
                              </g>
                              <g
                                 class="wordmark-text-0"
                                 data-fill-palette-color="primary"
                                 id="text-0" />
                            </svg>
                          </g>
                        </svg>
                      </g>
                    </svg>
                  </g>
                </svg>
              </g>
              <g
                 id="g759">
                <svg
                   viewBox="0 0 136.49218 136.49218"
                   height="136.49217"
                   width="136.49217"
                   version="1.1"
                   id="svg757">
                  <g
                     id="g733">
                    <svg
                       version="1.1"
                       id="svg731"
                       width="100%"
                       height="100%" />
                  </g>
                  <g
                     id="icon-0">
                    <svg
                       viewBox="0 0 136.49218 136.49218"
                       height="136.49217"
                       width="136.49217"
                       version="1.1"
                       id="svg754">
                      <g
                         id="g737">
                        <path
                           d="M 0,68.246 C 0,30.555 30.555,0 68.246,0 c 37.691,0 68.246,30.555 68.246,68.246 0,37.691 -30.555,68.246 -68.246,68.246 C 30.555,136.492 0,105.937 0,68.246 Z m 68.246,63.047 c 34.82,0 63.047,-28.227 63.047,-63.047 0,-34.82 -28.227,-63.047 -63.047,-63.047 -34.82,0 -63.047,28.227 -63.047,63.047 0,34.82 28.227,63.047 63.047,63.047 z"
                           data-fill-palette-color="accent"
                           fill="#000000"
                           stroke="transparent"
                           id="path735" />
                      </g>
                      <g
                         transform="translate(32.306726,32.306876)"
                         id="g752">
                        <svg
                           viewBox="0 0 71.878727 71.878428"
                           height="71.878426"
                           width="71.878731"
                           version="1.1"
                           id="svg750">
                          <g
                             id="g748">
                            <svg
                               version="1.0"
                               x="0"
                               y="0"
                               viewBox="4.667732 4.6859597 90.305033 90.304657"
                               enable-background="new 0 0 100 100"
                               xml:space="preserve"
                               height="71.878426"
                               width="71.878731"
                               class="icon-z$-0"
                               data-fill-palette-color="accent"
                               id="z$-0"><path
                                 d="m 17.504,35.743 c -1.334,8.611 0.522,17.134 5.093,23.382 3.514,4.801 8.413,7.905 13.796,8.739 5.677,0.88 11.253,-0.429 15.703,-3.685 1.248,-0.912 2.36,-1.946 3.326,-3.076 C 53.2,62.081 50.608,62.37 47.796,61.934 36.079,60.118 28.123,48.47 30.061,35.97 c 0.934,-6.03 4.384,-11.497 9.713,-15.397 6.768,-4.952 15.953,-6.97 25.201,-5.537 7.474,1.158 17.67,5.964 25.56,15.213 0,0 -22.835,-39.421 -56.115,-20.356 -10.731,6.147 -15.767,18.43 -16.916,25.85 z"
                                 fill="#000000"
                                 data-fill-palette-color="accent"
                                 id="path739" /><path
                                 d="M 82.544,65.256 C 84.203,56.701 82.669,48.115 78.337,41.699 75.006,36.768 70.228,33.482 64.88,32.446 59.241,31.352 53.619,32.45 49.05,35.537 47.768,36.4 46.619,37.391 45.61,38.484 47.867,37.59 50.469,37.4 53.262,37.941 64.902,40.198 72.413,52.137 70.006,64.557 68.845,70.546 65.191,75.881 59.718,79.576 52.769,84.268 43.513,85.94 34.325,84.158 26.902,82.719 16.894,77.532 9.358,67.992 c 0,0 21.331,40.255 55.307,22.457 10.956,-5.737 16.45,-17.821 17.879,-25.193 z"
                                 fill="#000000"
                                 data-fill-palette-color="accent"
                                 id="path741" /><path
                                 d="m 35.726,82.88 c 8.611,1.334 17.133,-0.522 23.381,-5.094 4.801,-3.514 7.905,-8.413 8.74,-13.796 0.879,-5.676 -0.429,-11.253 -3.686,-15.702 -0.912,-1.248 -1.946,-2.36 -3.076,-3.327 0.979,2.222 1.267,4.815 0.831,7.626 C 60.1,64.304 48.453,72.26 35.951,70.323 29.922,69.389 24.454,65.938 20.556,60.61 15.604,53.842 13.585,44.656 15.018,35.408 c 1.158,-7.474 5.964,-17.67 15.213,-25.559 0,0 -39.421,22.835 -20.356,56.115 6.147,10.731 18.43,15.766 25.851,16.916 z"
                                 fill="#000000"
                                 data-fill-palette-color="accent"
                                 id="path743" /><path
                                 d="M 90.432,35.718 C 84.694,24.763 72.61,19.268 65.238,17.839 56.684,16.18 48.097,17.714 41.681,22.047 c -4.931,3.331 -8.217,8.108 -9.254,13.456 -1.094,5.64 0.004,11.261 3.092,15.83 0.863,1.282 1.854,2.431 2.946,3.441 -0.894,-2.257 -1.084,-4.859 -0.542,-7.652 2.257,-11.64 14.196,-19.151 26.615,-16.744 5.99,1.161 11.324,4.816 15.019,10.289 4.693,6.949 6.363,16.204 4.583,25.392 -1.44,7.423 -6.626,17.431 -16.167,24.966 0,0 40.255,-21.331 22.459,-55.307 z"
                                 fill="#000000"
                                 data-fill-palette-color="accent"
                                 id="path745" /></svg>
                          </g>
                        </svg>
                      </g>
                    </svg>
                  </g>
                </svg>
              </g>
            </svg>
          </g>
          <defs
             id="defs765" />
        </svg>
        <rect
           width="395.51999"
           height="96.535034"
           fill="none"
           stroke="none"
           visibility="hidden"
           id="rect769"
           x="0"
           y="0" />
      </g>
    </svg>
  </g>
</svg>
