<svg xmlns="http://www.w3.org/2000/svg" version="1.1" xmlns:xlink="http://www.w3.org/1999/xlink" xmlns:svgjs="http://svgjs.dev/svgjs" width="1000" height="1000" viewBox="0 0 1000 1000"><rect width="1000" height="1000" fill="#000000"></rect><g transform="matrix(0.7,0,0,0.7,149.57575757575756,414.19064069957966)"><svg viewBox="0 0 396 97" data-background-color="#ffffff" preserveAspectRatio="xMidYMid meet" height="244" width="1000" xmlns="http://www.w3.org/2000/svg" xmlns:xlink="http://www.w3.org/1999/xlink"><g id="tight-bounds" transform="matrix(1,0,0,1,0.2400000000000091,0.232481569910874)"><svg viewBox="0 0 395.52 96.53503686017828" height="96.53503686017828" width="395.52"><g><svg viewBox="0 0 559.2310182816402 136.49217982193863" height="96.53503686017828" width="395.52"><g transform="matrix(1,0,0,1,163.71101828164018,39.42185697358734)"><svg viewBox="0 0 395.52 57.64846587476396" height="57.64846587476396" width="395.52"><g id="textblocktransform"><svg viewBox="0 0 395.52 57.64846587476396" height="57.64846587476396" width="395.52" id="textblock"><g><svg viewBox="0 0 395.52 57.64846587476396" height="57.64846587476396" width="395.52"><g transform="matrix(1,0,0,1,0,0)"><svg width="395.52" viewBox="2.65 -37.15 257.5874267578125 37.402" height="57.64846587476396" data-palette-color="#454545"><g transform="matrix(1,0,0,1,0,0)"><g><svg width="17.264951171875" viewBox="1.78 -36.36 74.21 36.36" height="8.459000000000001" data-palette-color="#454545" id="scriptelement" x="242.9724755859375" y="-37.15"><path d="M12.91-30.02L1.78-30.02 1.78-36.36 31.64-36.36 31.64-30.02 20.51-30.02 20.51 0 12.91 0 12.91-30.02ZM36.57 0L36.57-36.36 46.06-36.36 56.07-11.93 56.5-11.93 66.51-36.36 75.99-36.36 75.99 0 68.53 0 68.53-23.67 68.23-23.67 58.82-0.18 53.74-0.18 44.33-23.76 44.03-23.76 44.03 0 36.57 0Z" opacity="1" transform="matrix(1,0,0,1,0,0)" fill="#ffffff" class="undefined-123" data-fill-palette-color="primary" id="lv-123"></path></svg></g></g><g class="wordmark-text-0" data-fill-palette-color="primary" id="text-0"><path d="M7.5 0L2.65 0 6.85-36.85 11.85-36.85 21.25-6.1 30.5-36.85 35.55-36.85 39.85 0 35 0 31.4-30.7 32.25-30.6 23.55 0 18.9 0 10.05-30.6 10.95-30.65 7.5 0ZM54.35 0.2L54.35 0.2Q53.1 0.2 51.7-0.03 50.3-0.25 49.02-0.98 47.75-1.7 46.95-3.2 46.15-4.7 46.15-7.25L46.15-7.25 46.15-29.15Q46.15-31.35 46.82-32.85 47.5-34.35 48.6-35.23 49.7-36.1 51.07-36.48 52.45-36.85 53.8-36.85L53.8-36.85Q57.05-36.8 59.77-36.73 62.5-36.65 64.85-36.55 67.2-36.45 69.35-36.35L69.35-36.35 69.35-32.2 55.15-32.2Q53.3-32.2 52.25-31.25 51.2-30.3 51.2-28.25L51.2-28.25 51.2-20.6 67.1-20.3 67.1-16.4 51.2-16.05 51.2-8.5Q51.2-6.8 51.77-5.95 52.35-5.1 53.27-4.8 54.2-4.5 55.25-4.5L55.25-4.5 69.35-4.5 69.35-0.35Q67.05-0.2 64.5-0.08 61.95 0.05 59.37 0.13 56.8 0.2 54.35 0.2ZM86.45 0.25L86.45 0.25Q82.95 0.3 80.67-0.9 78.4-2.1 77.09-4.45 75.8-6.8 75.27-10.33 74.75-13.85 74.75-18.5L74.75-18.5Q74.75-23.1 75.32-26.6 75.9-30.1 77.3-32.45 78.7-34.8 81.22-35.98 83.75-37.15 87.55-37.15L87.55-37.15Q89.7-37.15 91.8-37 93.9-36.85 95.87-36.52 97.84-36.2 99.59-35.8L99.59-35.8 99.59-31.95Q98.59-32.1 96.8-32.25 95-32.4 92.82-32.52 90.65-32.65 88.4-32.65L88.4-32.65Q84.9-32.65 83.05-31.28 81.2-29.9 80.47-26.78 79.75-23.65 79.75-18.45L79.75-18.45Q79.75-14.3 80.15-11.58 80.55-8.85 81.45-7.28 82.34-5.7 83.92-5.03 85.5-4.35 87.9-4.35L87.9-4.35Q90.2-4.35 92.47-4.9 94.75-5.45 96.34-6L96.34-6 96.34-15.75 88.15-15.75 88.15-19.6Q89.15-19.75 90.52-19.85 91.9-19.95 93.42-20.03 94.95-20.1 96.5-20.1L96.5-20.1Q97.9-20.1 99.07-20.05 100.25-20 101.2-19.9L101.2-19.9 101.2 0 97.45 0 96.7-2.55Q95.05-1.7 92.3-0.75 89.55 0.2 86.45 0.25ZM111.49 0L106.29 0 118.59-36.85 124.99-36.85 137.29 0 132.04 0 128.79-9.65 114.69-9.65 111.49 0ZM121.74-32.45L115.89-14.2 127.54-14.2 121.74-32.45ZM157.29 0L142.39 0 142.39-36.85 157.29-36.85Q160.74-36.85 163.09-35.6 165.44-34.35 166.89-31.98 168.34-29.6 168.99-26.18 169.64-22.75 169.64-18.4L169.64-18.4Q169.64-12.5 168.27-8.4 166.89-4.3 164.14-2.15 161.39 0 157.29 0L157.29 0ZM147.44-32.35L147.44-4.5 156.84-4.5Q159.59-4.5 161.29-6.18 162.99-7.85 163.79-10.98 164.59-14.1 164.59-18.4L164.59-18.4Q164.59-22.35 164.14-25.03 163.69-27.7 162.74-29.33 161.79-30.95 160.31-31.65 158.84-32.35 156.84-32.35L156.84-32.35 147.44-32.35ZM184.24 0.2L184.24 0.2Q182.99 0.2 181.59-0.03 180.19-0.25 178.91-0.98 177.64-1.7 176.84-3.2 176.04-4.7 176.04-7.25L176.04-7.25 176.04-29.15Q176.04-31.35 176.71-32.85 177.39-34.35 178.49-35.23 179.59-36.1 180.96-36.48 182.34-36.85 183.69-36.85L183.69-36.85Q186.94-36.8 189.66-36.73 192.39-36.65 194.74-36.55 197.09-36.45 199.24-36.35L199.24-36.35 199.24-32.2 185.04-32.2Q183.19-32.2 182.14-31.25 181.09-30.3 181.09-28.25L181.09-28.25 181.09-20.6 196.99-20.3 196.99-16.4 181.09-16.05 181.09-8.5Q181.09-6.8 181.66-5.95 182.24-5.1 183.16-4.8 184.09-4.5 185.14-4.5L185.14-4.5 199.24-4.5 199.24-0.35Q196.94-0.2 194.39-0.08 191.84 0.05 189.26 0.13 186.69 0.2 184.24 0.2ZM222.04 0L215.64 0 203.34-36.85 208.54-36.85 218.84-5.35 229.19-36.85 234.34-36.85 222.04 0Z" fill="#ffffff" data-fill-palette-color="primary"></path></g></svg></g></svg></g></svg></g></svg></g><g><svg viewBox="0 0 136.49217982193863 136.49217982193863" height="136.49217982193863" width="136.49217982193863"><g><svg></svg></g><g id="icon-0"><svg viewBox="0 0 136.49217982193863 136.49217982193863" height="136.49217982193863" width="136.49217982193863"><g><path d="M0 68.246c0-37.691 30.555-68.246 68.246-68.246 37.691 0 68.246 30.555 68.246 68.246 0 37.691-30.555 68.246-68.246 68.246-37.691 0-68.246-30.555-68.246-68.246zM68.246 131.293c34.82 0 63.047-28.227 63.047-63.047 0-34.82-28.227-63.047-63.047-63.047-34.82 0-63.047 28.227-63.047 63.047 0 34.82 28.227 63.047 63.047 63.047z" data-fill-palette-color="accent" fill="#ffffff" stroke="transparent"></path></g><g transform="matrix(1,0,0,1,32.30672628188407,32.30687597790595)"><svg viewBox="0 0 71.8787272581705 71.87842786612673" height="71.87842786612673" width="71.8787272581705"><g><svg xmlns="http://www.w3.org/2000/svg" xmlns:xlink="http://www.w3.org/1999/xlink" version="1.0" x="0" y="0" viewBox="4.667731951646829 4.685959745359883 90.30503348557724 90.30465734357294" enable-background="new 0 0 100 100" xml:space="preserve" height="71.87842786612673" width="71.8787272581705" class="icon-z$-0" data-fill-palette-color="accent" id="z$-0"><path d="M17.504 35.743c-1.334 8.611 0.522 17.134 5.093 23.382 3.514 4.801 8.413 7.905 13.796 8.739 5.677 0.88 11.253-0.429 15.703-3.685 1.248-0.912 2.36-1.946 3.326-3.076-2.222 0.978-4.814 1.267-7.626 0.831-11.717-1.816-19.673-13.464-17.735-25.964 0.934-6.03 4.384-11.497 9.713-15.397 6.768-4.952 15.953-6.97 25.201-5.537 7.474 1.158 17.67 5.964 25.56 15.213 0 0-22.835-39.421-56.115-20.356C23.689 16.04 18.653 28.323 17.504 35.743z" fill="#ffffff" data-fill-palette-color="accent"></path><path d="M82.544 65.256c1.659-8.555 0.125-17.141-4.207-23.557-3.331-4.931-8.109-8.217-13.457-9.253-5.639-1.094-11.261 0.004-15.83 3.091-1.282 0.863-2.431 1.854-3.44 2.947 2.257-0.894 4.859-1.084 7.652-0.543 11.64 2.257 19.151 14.196 16.744 26.616-1.161 5.989-4.815 11.324-10.288 15.019-6.949 4.692-16.205 6.364-25.393 4.582C26.902 82.719 16.894 77.532 9.358 67.992c0 0 21.331 40.255 55.307 22.457C75.621 84.712 81.115 72.628 82.544 65.256z" fill="#ffffff" data-fill-palette-color="accent"></path><path d="M35.726 82.88c8.611 1.334 17.133-0.522 23.381-5.094 4.801-3.514 7.905-8.413 8.74-13.796 0.879-5.676-0.429-11.253-3.686-15.702-0.912-1.248-1.946-2.36-3.076-3.327 0.979 2.222 1.267 4.815 0.831 7.626-1.816 11.717-13.463 19.673-25.965 17.736-6.029-0.934-11.497-4.385-15.395-9.713-4.952-6.768-6.971-15.954-5.538-25.202 1.158-7.474 5.964-17.67 15.213-25.559 0 0-39.421 22.835-20.356 56.115C16.022 76.695 28.305 81.73 35.726 82.88z" fill="#ffffff" data-fill-palette-color="accent"></path><path d="M90.432 35.718c-5.738-10.955-17.822-16.45-25.194-17.879-8.554-1.659-17.141-0.125-23.557 4.208-4.931 3.331-8.217 8.108-9.254 13.456-1.094 5.64 0.004 11.261 3.092 15.83 0.863 1.282 1.854 2.431 2.946 3.441-0.894-2.257-1.084-4.859-0.542-7.652 2.257-11.64 14.196-19.151 26.615-16.744 5.99 1.161 11.324 4.816 15.019 10.289 4.693 6.949 6.363 16.204 4.583 25.392-1.44 7.423-6.626 17.431-16.167 24.966C67.973 91.025 108.228 69.694 90.432 35.718z" fill="#ffffff" data-fill-palette-color="accent"></path></svg></g></svg></g></svg></g></svg></g></svg></g><defs></defs></svg><rect width="395.52" height="96.53503686017828" fill="none" stroke="none" visibility="hidden"></rect></g></svg></g></svg>